<?xml version="1.0" standalone="no"?>
<!DOCTYPE svg PUBLIC "-//W3C//DTD SVG 20010904//EN"
 "http://www.w3.org/TR/2001/REC-SVG-20010904/DTD/svg10.dtd">
<svg version="1.0" xmlns="http://www.w3.org/2000/svg"
 width="700.000000pt" height="700.000000pt" viewBox="0 0 700.000000 700.000000"
 preserveAspectRatio="xMidYMid meet">

<g transform="translate(0.000000,700.000000) scale(0.100000,-0.100000)"
fill="#000000" stroke="none">
<path d="M3462 5853 c-29 -15 -52 -30 -52 -35 0 -4 -22 -8 -48 -8 -93 0 -175
-81 -178 -176 -1 -28 -9 -66 -19 -83 -35 -69 -3 -111 86 -110 24 0 225 -1 446
-2 l403 -1 11 25 c15 33 7 60 -33 122 -37 56 -84 85 -139 85 -33 0 -37 3 -48
39 -23 78 -94 121 -177 108 -26 -4 -36 -2 -44 12 -13 26 -71 51 -117 51 -23 0
-61 -11 -91 -27z m164 -58 c32 -34 35 -35 88 -29 70 8 110 -16 127 -79 17 -59
26 -67 71 -67 43 0 108 -23 108 -39 0 -5 6 -16 13 -23 8 -7 17 -25 20 -39 l7
-26 -268 4 c-348 6 -379 5 -494 -3 -88 -6 -98 -5 -98 10 0 9 11 27 25 39 24
20 25 25 14 55 -15 44 -5 76 39 120 34 34 45 39 93 41 36 1 60 8 74 21 32 30
77 50 114 50 26 0 42 -8 67 -35z"/>
<path d="M1849 5076 c-25 -6 -58 -21 -75 -32 -16 -11 -62 -30 -103 -43 -88
-27 -152 -84 -172 -151 -10 -32 -21 -46 -50 -61 -53 -26 -93 -82 -92 -126 2
-61 16 -67 165 -67 195 -1 801 13 888 20 108 9 137 29 83 57 l-26 14 36 7 c43
8 82 38 75 57 -3 8 -36 22 -74 32 -97 25 -174 57 -174 72 0 20 -48 74 -81 91
-16 8 -51 19 -78 24 -38 7 -59 19 -99 58 -65 64 -121 76 -223 48z m154 -56
c19 -12 47 -39 61 -60 24 -37 30 -40 74 -40 30 0 61 -8 86 -23 39 -22 45 -29
64 -78 8 -20 24 -30 81 -48 80 -25 94 -38 54 -46 -43 -9 -58 -20 -61 -44 -3
-20 -8 -21 -170 -22 -92 0 -252 -3 -357 -6 -295 -9 -404 -8 -416 4 -17 17 18
70 55 84 48 19 64 37 71 80 11 65 100 136 177 141 18 1 40 7 48 14 8 7 37 24
64 38 60 32 121 34 169 6z"/>
<path d="M4812 4791 c-47 -8 -119 -69 -124 -105 -2 -12 -16 -27 -33 -35 -110
-51 -140 -169 -54 -210 36 -18 71 -20 477 -23 240 -1 443 1 450 5 6 5 12 18
12 31 0 25 -62 75 -124 101 -25 11 -36 23 -41 45 -4 17 -18 44 -32 60 -20 25
-32 30 -68 30 -39 0 -47 4 -75 40 -18 22 -44 47 -59 55 -33 16 -108 13 -139
-6 -17 -11 -26 -11 -41 -2 -25 16 -98 23 -149 14z m127 -65 c23 -21 35 -20 99
4 29 11 56 20 61 20 12 0 70 -61 84 -90 11 -22 20 -25 62 -25 44 0 51 -3 72
-34 13 -19 23 -42 23 -51 0 -22 14 -32 73 -54 52 -19 65 -42 18 -31 -16 3
-197 7 -403 7 -205 1 -384 4 -398 8 -59 15 -17 109 57 127 32 7 38 14 44 43 8
37 56 86 93 93 38 8 97 -1 115 -17z"/>
<path d="M3786 4263 c-2 -3 -159 -7 -348 -9 -502 -7 -641 -16 -666 -47 -6 -7
-24 -70 -42 -142 -35 -148 -48 -188 -83 -265 -13 -30 -35 -84 -47 -120 -12
-36 -28 -74 -35 -85 -6 -11 -22 -47 -34 -79 -28 -76 -59 -120 -74 -107 -7 5
-32 12 -56 16 -29 4 -54 16 -72 34 -61 61 -136 74 -198 34 -17 -11 -26 -12
-34 -4 -6 6 -42 11 -79 11 -51 0 -70 4 -74 15 -20 51 -169 80 -212 42 -16 -15
-25 -16 -41 -8 -25 14 -83 14 -113 0 -13 -5 -33 -24 -43 -40 -11 -16 -34 -38
-52 -49 -64 -38 -117 -144 -82 -165 5 -4 76 -7 156 -6 80 0 150 -2 154 -5 5
-3 0 -23 -11 -44 -32 -63 -26 -108 14 -101 4 1 13 -2 20 -7 6 -5 127 -9 269
-8 141 1 257 -2 257 -6 0 -4 -5 -10 -10 -13 -20 -13 -40 -79 -40 -134 0 -31
-3 -85 -6 -121 l-7 -66 -68 -38 c-49 -26 -69 -43 -69 -57 0 -10 7 -19 15 -19
19 0 131 56 140 69 3 6 19 5 43 -3 20 -7 102 -16 182 -20 80 -3 172 -10 205
-15 33 -5 117 -9 185 -10 69 -1 152 -6 185 -11 74 -12 181 -18 351 -19 l131
-1 5 -77 c6 -90 18 -103 81 -96 88 9 85 7 92 77 5 46 12 66 24 70 9 4 29 14
45 23 23 12 64 16 180 18 169 3 387 20 467 36 30 6 72 15 94 19 22 5 61 16 85
25 49 18 55 19 88 17 14 -1 27 -12 34 -29 22 -52 56 -73 115 -73 48 0 54 3 63
26 6 14 10 61 10 105 0 66 -3 82 -20 99 -21 21 -31 23 -100 21 -51 -2 -60 -11
-60 -63 0 -33 -3 -38 -22 -38 -45 0 -48 9 -37 107 10 89 9 92 -16 129 -14 22
-34 50 -45 62 -31 37 -25 45 28 38 26 -3 123 -6 215 -7 195 -1 202 1 193 68
-5 41 -5 43 22 44 15 0 43 3 62 6 19 3 101 4 182 3 148 -2 320 13 370 32 87
33 73 174 -23 223 -17 9 -29 24 -29 35 0 21 -63 90 -83 91 -7 0 -34 4 -62 8
-34 6 -64 4 -94 -5 -37 -11 -47 -11 -65 1 -12 8 -45 15 -73 16 -43 2 -58 -3
-88 -25 -20 -15 -46 -43 -58 -62 -12 -19 -32 -37 -44 -40 -32 -8 -93 -79 -93
-108 0 -98 -30 -104 -86 -16 -47 75 -70 87 -134 74 -46 -10 -52 -8 -91 18 -67
45 -152 36 -203 -21 -24 -26 -36 -27 -36 -1 0 11 -4 28 -10 38 -9 18 -34 92
-65 197 -10 33 -22 71 -26 83 -19 49 -48 139 -59 182 -6 25 -15 54 -20 65 -5
11 -21 56 -36 100 -41 121 -30 116 -220 114 -90 -1 -165 -3 -168 -6z m284
-110 c-1 -47 -31 -219 -55 -308 -3 -11 -8 -37 -11 -59 -6 -43 -50 -192 -65
-219 -5 -9 -19 -43 -30 -75 -11 -31 -29 -75 -39 -97 -10 -22 -25 -67 -35 -100
-29 -99 -76 -228 -97 -262 l-20 -33 -110 5 c-61 3 -113 7 -117 9 -3 2 -73 7
-156 11 -82 4 -153 9 -156 11 -3 2 -71 6 -150 9 -79 3 -169 8 -199 11 -30 2
-116 7 -190 10 -74 3 -162 7 -195 10 -33 2 -75 5 -92 5 -18 1 -33 4 -33 8 0 4
24 36 53 71 46 57 187 271 187 285 0 5 66 151 79 175 5 9 12 30 15 48 4 17 12
34 17 37 5 4 9 16 9 27 0 11 8 35 19 52 10 17 25 54 34 81 38 125 48 164 60
225 22 106 1 102 551 106 252 2 461 6 464 9 3 3 63 5 134 5 l128 0 0 -57z m78
-85 c11 -35 25 -83 32 -108 7 -25 16 -54 20 -65 5 -11 25 -74 45 -140 81 -270
142 -429 200 -520 17 -27 41 -70 54 -95 13 -25 31 -54 40 -65 45 -52 53 -76
47 -134 -16 -138 -8 -126 -95 -150 -43 -11 -81 -21 -84 -21 -10 0 -47 72 -56
108 -6 20 -19 71 -31 112 -28 99 -40 148 -47 190 -9 61 -60 93 -82 52 -5 -9
-16 -76 -26 -147 -21 -169 -40 -246 -78 -311 -16 -29 -23 -32 -85 -38 -61 -6
-131 -9 -190 -7 -21 1 -22 4 -21 89 0 48 -2 108 -6 133 -5 36 -2 54 18 94 14
28 35 82 47 120 13 39 26 79 30 90 4 11 15 43 25 70 17 50 20 59 48 125 13 31
27 68 73 190 16 43 69 294 85 408 7 45 14 82 15 82 1 0 11 -28 22 -62z m1137
-472 c20 -20 28 -20 71 0 26 12 50 15 91 11 68 -7 101 -34 105 -86 3 -31 7
-36 32 -39 62 -7 100 -96 54 -126 -39 -24 -191 -32 -438 -22 -36 1 -83 -3
-105 -9 -22 -6 -53 -11 -70 -11 -29 1 -30 2 -33 58 -4 72 8 95 65 120 30 13
49 29 57 49 19 45 70 78 116 75 21 -2 46 -10 55 -20z m-3412 -88 c32 -12 34
-28 8 -52 -11 -10 -27 -33 -36 -52 -9 -19 -23 -34 -32 -34 -9 0 -24 -7 -33
-15 -13 -11 -50 -15 -168 -17 -84 -1 -154 1 -158 4 -11 11 26 54 71 82 25 16
45 33 45 37 0 5 9 18 20 29 24 24 72 26 90 5 16 -20 26 -19 58 4 45 31 72 33
135 9z m2746 -56 c37 -27 42 -28 90 -18 47 9 52 8 76 -14 13 -12 30 -38 36
-57 8 -27 21 -39 54 -53 39 -17 85 -64 85 -88 0 -5 -6 -12 -14 -15 -17 -7
-283 2 -368 11 -67 8 -56 -4 -130 144 -21 41 -17 58 24 94 46 42 85 41 147 -4z
m-2346 -12 c14 -11 27 -33 29 -48 3 -26 4 -27 60 -24 44 3 59 0 64 -11 6 -17
-30 -78 -84 -145 -30 -37 -39 -42 -63 -37 -15 3 -144 7 -287 7 l-260 1 21 41
c28 57 67 96 94 96 17 0 28 11 43 43 29 59 63 81 119 78 25 -1 60 -7 78 -13
27 -10 35 -9 50 4 39 33 99 37 136 8z m147 -417 c8 -2 98 -8 200 -13 320 -16
722 -40 729 -44 4 -3 79 -8 166 -11 88 -4 170 -8 183 -9 35 -2 42 -23 42 -123
0 -78 -3 -94 -17 -101 -22 -11 -39 -6 -64 19 -31 31 -125 29 -150 -2 -14 -19
-24 -20 -200 -16 -101 2 -213 7 -249 11 -36 4 -119 8 -185 11 -119 4 -160 6
-345 20 -52 4 -132 8 -178 9 -61 1 -86 5 -92 16 -9 14 -4 208 6 238 3 9 21 11
71 6 38 -3 75 -8 83 -11z m2402 -187 c7 -114 3 -124 -47 -112 -23 6 -25 11
-25 70 0 34 3 65 6 69 3 3 19 5 35 5 25 -1 29 -5 31 -32z m-1200 -188 c7 -90
1 -108 -32 -108 -32 0 -40 24 -40 116 l0 54 34 0 34 0 4 -62z"/>
<path d="M1915 2841 c-33 -7 -41 -29 -50 -141 -7 -98 -6 -100 74 -100 50 0 72
4 82 16 14 17 21 120 12 167 -9 44 -61 70 -118 58z m67 -92 c4 -20 4 -49 -1
-65 -6 -24 -13 -29 -37 -29 -29 0 -29 1 -26 50 5 73 10 87 35 83 15 -2 23 -13
29 -39z"/>
<path d="M1462 2628 c-57 -10 -92 -30 -140 -82 -62 -68 -78 -107 -65 -159 13
-51 6 -122 -13 -138 -8 -6 -14 -27 -14 -45 0 -35 22 -53 80 -67 25 -6 26 -8
22 -72 -3 -49 0 -71 12 -90 25 -37 4 -91 -40 -105 -17 -6 -39 -19 -49 -30 -17
-18 -17 -21 -1 -45 32 -48 97 -68 231 -68 118 -1 248 16 273 36 6 5 12 22 12
38 0 22 -9 35 -40 55 -52 35 -71 88 -45 128 13 20 16 40 13 81 -4 42 -1 55 9
55 28 0 73 31 79 55 4 14 0 39 -9 58 -27 59 -28 73 -7 100 22 27 27 88 10 131
-15 41 -80 106 -134 134 -57 30 -122 41 -184 30z m161 -74 c99 -55 142 -145
98 -203 -14 -18 -18 -35 -14 -58 7 -41 -7 -43 -30 -4 -9 16 -31 41 -47 55 -25
21 -30 32 -30 70 0 58 -7 74 -41 91 -56 30 -116 -23 -106 -93 5 -38 4 -38 -39
-51 -29 -9 -56 -26 -75 -50 l-31 -36 5 43 c3 23 0 55 -6 71 -8 22 -7 36 6 62
23 50 99 117 139 123 18 3 44 7 58 10 37 6 62 -1 113 -30z m-78 -134 c0 -47
-30 -55 -40 -11 -8 36 1 53 23 49 12 -2 17 -14 17 -38z m36 -105 c16 -9 41
-34 55 -56 17 -28 39 -46 65 -57 l40 -15 -38 -14 c-60 -21 -391 1 -417 27 -14
14 3 28 39 32 21 2 34 11 42 29 18 36 38 51 81 60 62 12 102 10 133 -6z m-58
-222 c-18 -27 -21 -28 -45 -6 -27 24 -22 32 21 30 38 -1 38 -2 24 -24z m-93
-23 l31 -39 -22 -31 c-28 -37 -35 -37 -53 -2 -15 29 -11 112 4 112 5 0 22 -18
40 -40z m215 19 c11 -32 -3 -84 -28 -107 l-23 -22 -21 22 c-35 40 -35 47 -2
88 36 44 64 51 74 19z m-122 -125 c24 -32 17 -38 -27 -30 -35 7 -36 7 -20 31
20 31 24 31 47 -1z m-35 -84 c18 -5 49 -4 68 2 19 5 45 8 57 5 43 -7 -34 -30
-104 -31 -72 -1 -137 22 -102 35 10 4 25 5 33 2 8 -3 30 -9 48 -13z m201 -56
c20 -14 21 -18 8 -25 -25 -14 -217 -31 -272 -24 -57 7 -115 25 -115 37 0 17
71 20 116 4 60 -20 116 -19 179 4 28 9 52 18 55 19 3 0 16 -6 29 -15z"/>
<path d="M4586 2475 c-25 -27 -38 -80 -41 -155 0 -29 -9 -57 -21 -75 -37 -53
-57 -131 -51 -201 2 -36 10 -71 17 -79 10 -12 5 -17 -27 -32 -21 -9 -46 -24
-56 -32 -16 -13 -19 -13 -27 -1 -6 8 -10 25 -10 37 0 12 -4 24 -9 27 -21 13
-21 56 0 79 18 19 20 30 16 87 -6 69 -16 100 -54 163 -21 34 -27 37 -67 37
-28 0 -64 -11 -104 -31 -66 -33 -80 -55 -68 -107 4 -15 11 -43 15 -62 5 -19
16 -54 26 -78 20 -48 40 -57 115 -50 47 5 50 4 60 -25 14 -40 14 -39 -17 -33
-65 14 -70 -36 -6 -53 21 -6 44 -15 51 -19 7 -5 28 -51 46 -103 22 -60 40 -95
50 -97 12 -3 16 4 16 27 0 30 2 31 44 31 l44 0 7 -52 c10 -71 27 -111 74 -167
31 -37 50 -49 88 -59 39 -10 52 -19 67 -47 19 -34 39 -45 89 -45 37 0 84 25
92 48 5 17 21 20 135 26 129 7 131 7 160 -17 16 -14 48 -28 70 -32 46 -8 70 6
89 53 11 27 13 27 106 26 108 -1 148 13 208 71 45 44 50 89 14 123 -32 30 -67
28 -130 -8 -30 -16 -66 -30 -80 -30 l-27 0 0 100 c0 55 -1 103 -2 108 -2 4 16
9 39 12 58 7 83 30 83 78 0 68 -60 132 -147 157 -16 4 -26 19 -33 48 -6 23
-13 49 -16 57 -2 9 -21 34 -42 57 -37 40 -39 43 -39 117 -1 101 -16 126 -79
126 -48 0 -105 -24 -164 -70 -34 -25 -39 -26 -160 -26 l-126 1 -57 50 c-85 73
-122 82 -161 40z m113 -72 c25 -21 55 -48 66 -61 19 -22 24 -23 87 -14 37 4
97 5 134 0 73 -8 73 -8 166 54 107 71 136 58 125 -58 l-6 -63 49 -51 c40 -41
50 -58 55 -98 3 -26 7 -53 8 -61 1 -8 31 -23 67 -35 50 -17 70 -29 87 -55 33
-49 30 -57 -28 -64 -80 -10 -81 -13 -73 -141 6 -103 5 -114 -16 -151 -12 -22
-31 -49 -41 -61 -10 -11 -19 -30 -19 -43 0 -61 -52 -82 -89 -35 -11 14 -21 28
-23 33 -2 4 -39 3 -83 -2 -44 -5 -115 -11 -157 -12 -77 -2 -108 -14 -108 -41
0 -19 -38 -37 -66 -30 -15 4 -29 19 -38 39 -11 28 -24 37 -74 55 -52 20 -65
30 -96 76 -29 44 -37 66 -41 122 -4 37 -9 72 -11 76 -3 4 -29 8 -59 8 -35 0
-59 5 -69 16 -28 27 -17 57 24 67 39 10 93 64 85 85 -30 71 -34 92 -25 148 5
32 18 70 28 84 24 32 35 59 38 90 13 121 24 160 46 160 6 0 32 -17 57 -37z
m-402 -171 c12 -27 25 -74 29 -104 l7 -56 -39 -11 c-64 -18 -102 -14 -118 12
-13 19 -20 40 -43 133 -5 24 2 31 62 56 65 28 77 24 102 -30z m1397 -618 c8
-20 -14 -46 -60 -75 -23 -14 -58 -22 -120 -26 l-87 -6 19 31 c16 28 23 32 64
32 30 0 63 10 100 29 65 34 76 36 84 15z"/>
<path d="M4696 2114 c-9 -8 -16 -22 -16 -29 0 -19 28 -45 49 -45 40 0 57 61
22 80 -27 14 -37 13 -55 -6z"/>
<path d="M5073 2123 c-19 -7 -16 -58 5 -76 15 -13 22 -14 42 -4 61 31 16 106
-47 80z"/>
<path d="M4879 2029 c-10 -19 -17 -21 -60 -15 -45 6 -49 5 -49 -14 0 -15 11
-26 35 -36 31 -13 39 -12 71 1 22 9 42 11 52 7 54 -26 122 1 122 48 0 24 -32
27 -50 5 -17 -21 -37 -19 -57 5 -23 26 -49 25 -64 -1z"/>
<path d="M2941 2428 c-19 -5 -53 -22 -76 -38 -38 -26 -49 -28 -136 -29 -52 -1
-109 -5 -127 -10 -28 -8 -42 -5 -95 22 -43 21 -81 32 -122 35 -81 5 -90 -6
-90 -109 0 -58 -4 -81 -17 -96 -35 -39 -60 -112 -54 -161 7 -65 16 -90 33 -96
25 -10 35 4 28 38 -18 78 7 168 52 189 23 10 23 13 17 99 l-7 88 28 0 c15 0
64 -17 109 -38 79 -38 82 -38 131 -25 59 15 137 17 181 4 28 -8 38 -4 89 32
37 26 74 43 104 48 61 10 73 -5 69 -88 -2 -55 1 -65 23 -90 42 -46 60 -95 57
-160 -3 -52 -1 -58 17 -61 17 -2 23 5 33 45 16 65 3 120 -42 182 -32 43 -36
55 -30 86 8 43 -19 120 -46 135 -23 12 -84 11 -129 -2z"/>
<path d="M2934 2153 c-30 -6 -60 -41 -48 -53 17 -17 114 10 114 31 0 15 -22
31 -38 28 -4 -1 -17 -4 -28 -6z"/>
<path d="M2508 2123 c-31 -8 -21 -40 13 -47 58 -11 109 -7 116 10 3 8 2 19 -3
23 -11 10 -102 20 -126 14z"/>
<path d="M2746 2039 c-23 -18 -35 -20 -76 -15 -58 8 -75 -8 -40 -36 19 -16 23
-27 21 -67 -2 -59 21 -93 78 -110 34 -10 41 -16 41 -36 0 -25 -1 -25 -57 -19
-32 3 -63 7 -70 9 -17 5 -33 -18 -23 -34 4 -8 31 -16 59 -19 28 -2 54 -9 57
-14 9 -15 -25 -47 -54 -50 -31 -4 -38 -20 -17 -41 12 -12 22 -14 41 -7 39 15
43 12 34 -19 -9 -33 -5 -41 23 -41 11 0 21 9 24 21 4 14 11 18 22 13 37 -15
96 -22 109 -12 21 18 8 32 -43 43 -87 18 -86 66 2 62 28 -1 49 4 59 15 27 27
8 38 -59 35 -61 -2 -62 -1 -65 25 -5 41 14 68 48 68 58 0 80 57 64 174 l-7 46
-47 0 c-30 0 -52 6 -60 15 -17 20 -32 19 -64 -6z m109 -61 c11 11 25 -22 25
-60 0 -35 -20 -68 -42 -68 -5 0 -18 10 -28 23 -17 20 -19 20 -25 5 -8 -20 -37
-23 -66 -8 -14 8 -19 21 -19 51 0 34 4 41 28 49 15 6 34 14 42 19 9 5 27 4 47
-4 17 -7 34 -10 38 -7z"/>
<path d="M3769 2033 c-1 -5 -3 -23 -5 -42 -3 -39 -55 -119 -114 -175 -59 -56
-81 -109 -71 -177 4 -30 15 -69 25 -87 10 -19 16 -35 14 -37 -2 -2 -36 -13
-77 -24 -86 -24 -97 -31 -105 -72 -4 -24 0 -38 21 -66 l27 -35 68 7 c58 6 67
5 63 -8 -9 -22 19 -44 79 -61 30 -9 57 -16 62 -16 4 0 27 16 51 36 l44 36 20
-26 c18 -23 28 -26 84 -26 69 0 81 8 87 55 2 21 8 29 18 26 8 -2 43 -6 77 -8
56 -5 63 -3 87 20 30 30 36 87 11 107 -15 12 -67 28 -122 37 -18 3 -33 7 -33
9 0 2 10 23 22 46 17 32 23 60 23 108 0 99 -28 150 -83 150 -14 0 -25 12 -35
39 -33 82 -93 152 -150 176 -39 16 -86 20 -88 8z m117 -98 c55 -57 84 -113 84
-163 0 -54 23 -72 53 -43 13 11 26 21 30 21 14 0 24 -70 16 -119 -27 -172
-226 -235 -367 -116 -40 34 -58 67 -67 125 -9 59 4 88 62 149 65 68 81 88 106
144 12 26 26 47 31 47 5 0 29 -20 52 -45z m-182 -491 c96 -65 210 -63 316 6
23 16 30 15 103 -7 64 -20 76 -27 69 -40 -13 -22 -68 -25 -130 -5 -63 19 -77
10 -76 -48 1 -40 1 -40 -35 -40 -33 0 -39 4 -52 33 -13 30 -59 53 -59 29 0 -6
-22 -26 -48 -45 -36 -26 -56 -33 -76 -30 -37 7 -42 21 -17 47 22 23 27 51 12
61 -5 3 -51 -4 -102 -15 -87 -20 -93 -20 -111 -4 -10 10 -17 22 -15 28 3 10
132 52 167 55 9 1 33 -11 54 -25z"/>
<path d="M3143 1913 c-22 -8 -14 -33 13 -43 37 -15 44 -13 44 14 0 29 -25 42
-57 29z"/>
<path d="M2260 1860 c0 -24 26 -38 42 -22 8 8 8 15 -2 27 -18 21 -40 19 -40
-5z"/>
<path d="M3140 1775 c-6 -8 -9 -19 -5 -26 4 -6 10 -45 14 -87 l6 -76 40 -8
c42 -9 65 -30 65 -59 0 -22 -61 -43 -104 -36 -20 3 -46 -2 -71 -14 -21 -10
-46 -19 -54 -19 -9 0 -34 -7 -56 -15 -22 -8 -66 -14 -97 -15 -53 0 -58 2 -64
25 -9 36 -54 57 -117 53 -45 -3 -52 -6 -55 -25 -3 -21 0 -23 47 -23 58 0 87
-20 71 -49 -10 -19 -47 -30 -90 -26 -206 17 -229 22 -295 75 -56 44 -73 84
-80 181 -9 110 -9 113 -36 98 -20 -10 -21 -17 -17 -95 6 -105 -2 -110 -104
-57 -40 20 -81 37 -90 36 -10 0 -25 -1 -33 -2 -8 0 -22 -15 -31 -32 -20 -39
-12 -88 19 -117 32 -30 119 -71 169 -80 55 -10 148 -6 161 7 7 7 18 4 36 -8
57 -40 143 -56 296 -56 87 0 104 3 127 21 20 15 43 22 85 23 81 2 162 18 230
47 17 8 46 14 65 14 53 0 128 29 140 55 12 27 -5 95 -29 117 -10 9 -32 19 -49
22 -29 6 -31 10 -32 51 0 52 -21 115 -38 115 -6 0 -17 -7 -24 -15z m-1026
-246 c37 -20 77 -32 104 -34 34 -1 49 -7 63 -26 10 -13 19 -28 19 -32 0 -9
-108 -4 -146 6 -80 21 -147 77 -129 107 10 16 26 12 89 -21z"/>
</g>
</svg>
